<svg version="1.1" xmlns="http://www.w3.org/2000/svg" viewBox="60 170 120 130"> <!--0 0 550 470-->
    <g fill="#101820" fill-rule="none" stroke="none" stroke-width="1"
       stroke-linecap="butt" stroke-linejoin="miter" stroke-miterlimit="10"
       stroke-dasharray="" stroke-dashoffset="0" font-family="none"
       font-weight="none" font-size="none" text-anchor="none"
       style="mix-blend-mode: normal">
        <g
        >
            <g
                fill-rule="evenodd" id="element-id-86271">
                <g
                    id="element-id-82973">
                    <path
                        d="M108.95294,175.64137c0,0 -43.95294,15.94398 -43.95294,60.11291c0,44.16894 43.95294,58.60492 43.95294,58.60492c0,0 -13.57338,-6.46399 -13.57338,-59.46692c0,-53.00192 13.57338,-59.25092 13.57338,-59.25092z"
                        id="element-id-41176"/>
                    <path
                        d="M136.5319,177.79637c-7.10999,0 -13.14298,5.81699 -13.14298,13.14298c0,7.10999 6.03299,12.92698 13.14298,12.92698c7.32599,0 13.14298,-5.81699 13.14298,-12.92698c0,-7.32599 -5.81699,-13.14298 -13.14298,-13.14298z"
                        id="element-id-23482"/>
                    <path
                        d="M158.90487,195.79934c5.11499,5.11499 9.07499,10.98898 11.88098,17.62098c2.90466,6.86799 4.35699,14.06131 4.35699,21.57997c0,7.51899 -1.453,14.71198 -4.35699,21.57997c-2.806,6.63199 -6.76599,12.50598 -11.88098,17.62098c-5.11466,5.11533 -10.98832,9.07532 -17.62098,11.87998c-6.86799,2.905 -14.06098,4.35699 -21.57997,4.35699c-3.68599,0 -7.29499,-0.349 -10.82498,-1.047l-0.345,-0.455l-0.561,-0.833l-0.535,-0.881l-0.313,-0.566c4.08099,0.993 8.27499,1.489 12.57898,1.489c7.20899,0 14.10398,-1.392 20.68697,-4.17599c6.35732,-2.68933 11.98832,-6.48599 16.89298,-11.38998c4.90399,-4.90399 8.69999,-10.53499 11.38998,-16.89298c2.783,-6.58199 4.17499,-13.47698 4.17499,-20.68597c0,-7.20899 -1.392,-14.10398 -4.17499,-20.68597c-2.69,-6.35799 -6.48599,-11.98898 -11.38998,-16.89298c-1.368,-1.368 -2.793,-2.65 -4.27399,-3.84599l0.094,-0.572l0.038,-0.328l0.082,-1.184l0.009,-0.205l0.003,-0.305l-0.002,-0.145c1.984,1.512 3.87499,3.166 5.67099,4.96299z"
                        id="element-id-14346"/>
                </g>
            </g>
        </g>
    </g>
</svg>
