<svg version="1.1" xmlns="http://www.w3.org/2000/svg" viewBox="60 170 430 130"> <!--0 0 550 470-->
    <g fill="#101820" fill-rule="none" stroke="none" stroke-width="1"
       stroke-linecap="butt" stroke-linejoin="miter" stroke-miterlimit="10"
       stroke-dasharray="" stroke-dashoffset="0" font-family="none"
       font-weight="none" font-size="none" text-anchor="none"
       style="mix-blend-mode: normal">
        <g
        >
            <g
                fill-rule="nonzero" id="element-id-94647">
                <path
                    d="M225.40291,259.54444c-2.57321,-5.60827 -3.9093,-11.44748 -4.00827,-17.51761c-0.16495,-13.62481 1.71547,-24.14857 5.64126,-31.57128c3.33197,-6.30106 7.95055,-10.14438 13.85574,-11.52995c0.49485,-0.13196 0.9732,-0.23093 1.43506,-0.29691c0,1.64949 -0.01649,3.16703 -0.04948,4.5526c0,1.6165 -0.03299,2.77115 -0.09897,3.46393l-0.34639,0.04948l-0.39588,0.09897l-0.39588,0.09897c-0.3299,0.06598 -0.6433,0.14845 -0.94021,0.24742c-0.72578,0.19794 -1.41856,0.44536 -2.07836,0.74227c-1.78145,0.85774 -3.33197,2.12785 -4.65157,3.81033c-3.82682,4.78353 -5.92168,12.80006 -6.28457,24.0496c-0.19794,5.90518 0.54433,11.10108 2.22681,15.5877c1.25361,3.39795 3.01857,6.26807 5.29487,8.61035c2.73816,2.87012 5.5258,4.50311 8.36293,4.89899c0,0.36289 0,0.85774 0,1.48454l0.04948,0.89073v0.94021c0,0.69279 0,1.25361 0,1.68248c-0.69279,-0.03299 -1.33609,-0.09897 -1.92991,-0.19794c-7.91756,-1.2866 -13.14645,-4.65157 -15.68667,-10.09489zM255.98449,264.83932c-5.11343,3.03507 -8.87427,4.66806 -11.28253,4.89899c-0.03299,-0.46186 -0.04948,-1.00619 -0.04948,-1.633c-0.03299,-2.2763 -0.08247,-3.66187 -0.14845,-4.15672l-0.09897,-0.69279h-0.69279c-0.36289,0 -0.79176,-0.06598 -1.2866,-0.19794c-0.62681,-0.16495 -1.25361,-0.39588 -1.88042,-0.69279c-1.68248,-0.82475 -3.26599,-2.01238 -4.75054,-3.5629c-2.14434,-2.21032 -3.81033,-4.93198 -4.99796,-8.16499c-1.58351,-4.2227 -2.2763,-9.17118 -2.07836,-14.84543c0.36289,-10.68871 2.2763,-18.29287 5.74023,-22.81248c1.22062,-1.58351 2.63919,-2.77115 4.25569,-3.5629c0.59382,-0.29691 1.22062,-0.54433 1.88042,-0.74227c0.26392,-0.06598 0.54433,-0.13196 0.84124,-0.19794l0.34639,-0.09897l0.34639,-0.04948c0.52784,-0.09897 0.89073,-0.18144 1.08866,-0.24742l0.44536,-0.19794l0.09897,-0.44536c0.06598,-0.52784 0.11546,-1.84743 0.14845,-3.95878c0.03299,-0.82475 0.04948,-1.73197 0.04948,-2.72166c0,-0.72578 0,-1.48454 0,-2.2763c2.6062,-0.09897 5.14642,0.42887 7.62065,1.58351c0.89073,0.42887 1.74846,0.92372 2.57321,1.48454c0.59382,0.39588 1.12165,0.80825 1.58351,1.23712c1.25361,-2.47424 2.50723,-4.68456 3.76084,-6.63096c-0.16495,-0.06598 -0.41237,-0.19794 -0.74227,-0.39588l-0.39588,-0.24742l-0.49485,-0.29691c-0.89073,-0.49485 -1.69898,-0.94021 -2.42475,-1.33609c-2.30929,-1.15464 -4.58559,-1.97939 -6.8289,-2.47424c-6.76292,-1.45155 -13.39388,0.06598 -19.89288,4.5526c-5.14642,3.52991 -9.13819,9.60004 -11.97531,18.21039c-2.6062,7.81859 -3.87631,16.32997 -3.81033,25.53414c0.06598,6.79591 1.41856,13.29491 4.05775,19.497c3.10105,7.22478 7.27426,12.12377 12.51965,14.69698c4.35466,2.14434 9.45159,3.15053 15.29079,3.01857c7.1588,-0.19794 12.53614,-2.40826 16.13203,-6.63096c-1.88042,-1.74846 -3.52991,-3.5629 -4.94848,-5.44332z"
                    id="element-id-90652"/>
                <path
                    d="M282.16194,272.70739c-0.6598,0.03299 -1.41856,0.03299 -2.2763,0l-2.2763,-0.09897l-1.78145,-0.09897c0.3299,-11.28253 0.62681,-24.46197 0.89073,-39.53833c0.26392,-17.94648 0.29691,-30.48262 0.09897,-37.60842h7.17529c-0.06598,5.90518 -0.34639,19.28256 -0.84124,40.13215c-0.49485,20.98154 -0.82475,33.38572 -0.9897,37.21255zM305.91462,188.13792c-25.07228,0.39588 -38.6476,0.59382 -40.72596,0.59382c1.51753,55.8848 2.2763,86.4169 2.2763,91.59631c0.59382,0.06598 1.27011,0.11546 2.02888,0.14845l2.02888,0.09897c1.78145,0.06598 3.08455,0.16495 3.9093,0.29691c0.09897,-0.46186 0.21443,-2.70517 0.34639,-6.72993l1.73197,0.09897l1.68248,0.09897h1.73197c0.72578,0 1.41856,-0.01649 2.07836,-0.04948l0.69279,-0.09897l0.04948,-0.69279c0.13196,-1.64949 0.46186,-13.55883 0.9897,-35.728c0.52784,-21.90526 0.82475,-36.04141 0.89073,-42.40845h12.22274c-0.23093,12.60212 -0.9732,40.90741 -2.22681,84.91586c0.6598,0 1.55052,0.04948 2.67218,0.14845l1.48454,0.14845l1.53403,0.09897c2.57321,0.23093 4.47012,0.24742 5.69075,0.04948c0.52784,-4.45363 0.54433,-20.8001 0.04948,-49.03941c-0.16495,-10.49077 -0.37938,-20.25577 -0.6433,-29.29498c-0.23093,-8.7753 -0.39588,-13.52584 -0.49485,-14.25161z"
                    id="element-id-4367"/>
                <path
                    d="M332.53743,269.68882c-0.16495,-0.03299 -0.41237,-0.06598 -0.74227,-0.09897l-0.89073,-0.04948c-1.58351,-0.13196 -2.82063,-0.23093 -3.71136,-0.29691l0.09897,-3.5629l0.14845,-3.61239l0.19794,-7.32375c0.16495,-5.70724 0.29691,-10.57325 0.39588,-14.59801c0.23093,-11.01861 0.28041,-20.00834 0.14845,-26.9692c0.75877,-0.03299 1.74846,-0.11546 2.96909,-0.24742l1.38557,-0.09897c0.46186,-0.03299 0.84124,-0.06598 1.13815,-0.09897c0,3.39795 -0.14845,12.86604 -0.44536,28.40426c-0.29691,14.77945 -0.52784,24.29702 -0.69279,28.55271zM335.16012,211.19783l-0.59382,-0.09897c-0.42887,-0.03299 -1.6165,0.03299 -3.5629,0.19794l-0.6433,0.09897l-0.69279,0.04948c-0.59382,0.03299 -1.10516,0.06598 -1.53403,0.09897c-0.06598,-2.24331 -0.14845,-3.82682 -0.24742,-4.75054c-1.22062,-0.16495 -3.11754,-0.14845 -5.69075,0.04948l-1.58351,0.14845l-1.48454,0.14845c-1.08866,0.06598 -1.9629,0.11546 -2.62269,0.14845c1.51753,43.18371 2.2763,67.36526 2.2763,72.54467c0.56083,0.06598 1.23712,0.11546 2.02888,0.14845l2.02888,0.09897c1.78145,0.06598 3.08455,0.16495 3.9093,0.29691c0.09897,-0.56083 0.23093,-3.72785 0.39588,-9.50108c0.52784,0.03299 1.17114,0.08247 1.92991,0.14845l0.89073,0.09897l0.79176,0.04948c1.45155,0.13196 2.29279,0.19794 2.52372,0.19794l0.09897,-0.04948h0.69279l0.04948,-0.69279c0.03299,-0.13196 0.11546,-3.21651 0.24742,-9.25365c0.16495,-6.46601 0.3299,-13.09697 0.49485,-19.89288c0.39588,-19.23308 0.52784,-29.14653 0.39588,-29.74035zM327.4405,201.25139v-12.86604h-11.82686l0.89073,12.86604z"
                    id="element-id-30032"/>
                <path
                    d="M354.75609,257.21866c-0.56083,5.77322 -1.83094,9.86396 -3.81033,12.27222c-1.55052,1.91341 -3.66187,2.88661 -6.33405,2.9196v-5.1959c2.96909,-0.6598 4.93198,-2.98558 5.88869,-6.97735c0.36289,-1.45155 0.57732,-3.11754 0.6433,-4.99796c0.03299,-0.72578 0.04948,-1.50104 0.04948,-2.32578l-0.04948,-0.9897v-0.94021c-0.06598,-3.10105 -0.41237,-11.01861 -1.03918,-23.75269l-0.19794,-4.89899l-0.24742,-4.80002c-0.16495,-3.49692 -0.29691,-6.46601 -0.39588,-8.90726c-0.26392,-6.13611 -0.37938,-10.12788 -0.34639,-11.97531c0.69279,-0.06598 1.56702,-0.09897 2.62269,-0.09897c0.69279,0 1.633,0.03299 2.82063,0.09897c0.03299,2.80414 0.11546,8.01653 0.24742,15.63719c0.09897,3.82682 0.16495,6.8124 0.19794,8.95674c0.06598,3.36496 0.11546,6.36704 0.14845,9.00623c0.19794,14.41656 0.13196,23.4063 -0.19794,26.9692zM386.77274,188.83071c-1.31959,-0.19794 -12.14026,0.08247 -32.46201,0.84124c0,1.31959 0,3.10105 0,5.34435c-1.38557,-0.06598 -2.49073,-0.09897 -3.31548,-0.09897c-1.18763,0 -2.19382,0.06598 -3.01857,0.19794l-0.6433,0.09897l-0.04948,0.6433c-0.06598,1.41856 0.03299,5.32786 0.29691,11.72789c0.09897,2.54022 0.23093,5.67425 0.39588,9.40211c0.06598,1.48454 0.14845,3.18352 0.24742,5.09693l0.24742,5.24539c0.59382,12.6681 0.94021,20.61865 1.03918,23.85166v0.79176l0.04948,0.94021c0,0.75877 -0.01649,1.46805 -0.04948,2.12785c-0.06598,1.78145 -0.24742,3.33197 -0.54433,4.65157c-0.85774,3.66187 -2.62269,5.67425 -5.29487,6.03714l-0.69279,0.04948v0.74227v5.8392l-1.83094,-0.24742l-1.78145,-0.29691c-0.36289,1.02269 -0.39588,3.10105 -0.09897,6.23508c5.5093,1.64949 9.99592,1.76496 13.45986,0.34639c3.59589,-1.48454 6.28457,-4.71755 8.06602,-9.69901c1.58351,-4.51961 2.57321,-15.45574 2.96909,-32.8084c0.3299,-14.31759 0.21443,-27.56302 -0.34639,-39.73627h12.17325c0.09897,2.87012 0.18144,5.8557 0.24742,8.95674c0.13196,3.82682 0.24742,7.62065 0.34639,11.3815c0.26392,9.60004 0.49485,18.24338 0.69279,25.93002c0.56083,21.41041 0.82475,33.50119 0.79176,36.27233c0.59382,0.06598 1.27011,0.11546 2.02888,0.14845l2.07836,0.09897c1.78145,0.06598 3.08455,0.16495 3.9093,0.29691c0.09897,-0.72578 0.26392,-5.34435 0.49485,-13.85574c0.26392,-8.84128 0.47835,-18.37534 0.6433,-28.6022c0.49485,-27.51353 0.47835,-43.49711 -0.04948,-47.95074z"
                    id="element-id-85253"/>
                <path
                    d="M411.71306,271.86615c-0.29691,0 -0.70928,-0.01649 -1.23712,-0.04948l-0.69279,-0.04948l-0.74227,-0.04948c-2.01238,-0.13196 -3.44744,-0.19794 -4.30517,-0.19794c0.72578,-14.38357 1.18763,-31.30736 1.38557,-50.77137c0.46186,-0.36289 1.15464,-0.89073 2.07836,-1.58351l0.59382,-0.39588l0.6433,-0.49485c0.49485,-0.36289 0.94021,-0.67629 1.33609,-0.94021c0.6598,2.14434 1.50104,4.84951 2.52372,8.1155c-0.03299,4.98147 -0.26392,13.29491 -0.69279,24.94032c-0.39588,11.34851 -0.69279,18.5073 -0.89073,21.47639zM433.6843,204.26996l0.34639,0.6433c0.26392,0.46186 0.49485,0.87423 0.69279,1.23712c0.49485,0.92372 0.75877,1.55052 0.79176,1.88042c-0.19794,0.13196 -0.57732,0.37938 -1.13815,0.74227c-0.23093,0.13196 -0.49485,0.29691 -0.79176,0.49485l-0.89073,0.54433l-1.13815,0.69279l-1.18763,0.74227c-0.92372,0.56083 -1.76496,1.08866 -2.52372,1.58351c-1.97939,1.25361 -3.61239,2.35877 -4.89899,3.31548c-0.89073,-2.57321 -1.66599,-4.60208 -2.32578,-6.08663c4.65157,-3.49692 8.4454,-6.43302 11.3815,-8.80829c0.29691,0.56083 0.74227,1.38557 1.33609,2.47424zM433.53584,211.19783c2.04537,-1.25361 3.16703,-1.97939 3.36496,-2.17733c0.36289,-0.42887 0.36289,-1.10516 0,-2.02888c-0.26392,-0.72578 -0.9732,-2.09486 -2.12785,-4.10724c-0.6598,-1.18763 -1.15464,-2.09486 -1.48454,-2.72166c3.16703,-2.63919 5.01446,-4.43713 5.54229,-5.39384c-0.46186,-0.82475 -1.50104,-1.89692 -3.11754,-3.21651c-1.71547,-1.41856 -2.98558,-2.12785 -3.81033,-2.12785c-0.3299,0 -3.52991,2.2598 -9.60004,6.77941c-6.499,4.81652 -11.87634,8.98973 -16.13203,12.51965c-0.06598,-9.99592 -0.3134,-16.32997 -0.74227,-19.00215c-1.41856,-0.23093 -4.84951,-0.26392 -10.29283,-0.09897c0.09897,5.2124 0.24742,12.12377 0.44536,20.73412c0.23093,10.22685 0.46186,19.76092 0.69279,28.6022c0.59382,24.31352 0.9732,37.27853 1.13815,38.89503c2.2763,0.29691 4.58559,0.29691 6.92787,0c0.09897,-0.82475 0.19794,-2.39176 0.29691,-4.70105c0.59382,0 1.33609,0.03299 2.22681,0.09897l1.08866,0.04948c0.29691,0.03299 0.62681,0.04948 0.9897,0.04948c1.51753,0.09897 2.50723,0.14845 2.96909,0.14845c0.26392,0 0.47835,0 0.6433,0l0.6433,-0.09897l0.04948,-0.6433c0.16495,-1.41856 0.44536,-7.10931 0.84124,-17.07224c0.36289,-9.96293 0.62681,-18.37534 0.79176,-25.23723c3.72785,11.87634 6.91137,21.82278 9.55056,29.83932c3.66187,11.0516 6.00415,17.58359 7.02684,19.59597c0.56083,-0.19794 1.18763,-0.46186 1.88042,-0.79176l1.88042,-0.84124c1.6165,-0.75877 2.82063,-1.27011 3.61239,-1.53403c-0.13196,-0.36289 -0.74227,-2.83713 -1.83094,-7.42272l-0.19794,-0.79176l-0.19794,-0.84124l-0.39588,-1.73197c-0.3299,-1.35258 -0.62681,-2.6062 -0.89073,-3.76084c-0.75877,-3.06806 -1.45155,-5.92168 -2.07836,-8.56086c-1.74846,-7.12581 -3.36496,-13.41037 -4.84951,-18.8537c-1.84743,-6.96086 -3.48043,-12.60212 -4.89899,-16.92379c1.2866,-0.9897 2.96909,-2.16083 5.04745,-3.51342c0.79176,-0.49485 1.68248,-1.05568 2.67218,-1.68248c0.36289,-0.23093 0.75877,-0.47835 1.18763,-0.74227c0.29691,-0.16495 0.67629,-0.39588 1.13815,-0.69279z"
                    id="element-id-1248"/>
                <path
                    d="M462.88031,215.99785c-0.72578,0.79176 -1.38557,1.46805 -1.97939,2.02888l-1.08866,7.76911c0.62681,-0.59382 1.6165,-1.48454 2.96909,-2.67218c0.49485,-0.39588 1.18763,-1.02269 2.07836,-1.88042l0.6433,-0.59382c0.59382,-0.46186 0.95671,-0.82475 1.08866,-1.08866l0.04948,0.04948l-1.18763,-6.43302c-0.26392,0.26392 -0.56083,0.57732 -0.89073,0.94021l-0.69279,0.84124zM462.68237,213.82052l0.6433,-0.74227c0.6598,-0.79176 1.25361,-1.35258 1.78145,-1.68248l-1.2866,-6.97735h-1.03918l-1.53403,10.93613l0.44536,-0.44536zM465.99785,222.43087c-0.89073,0.85774 -1.60001,1.51753 -2.12785,1.97939c-0.23093,0.19794 -0.6598,0.57732 -1.2866,1.13815c-0.72578,0.62681 -1.31959,1.15464 -1.78145,1.58351h5.24539h1.97939l-1.03918,-5.59178l-0.44536,0.39588zM470.40199,270.18367c-0.06598,-0.26392 -0.11546,-0.56083 -0.14845,-0.89073c-0.06598,-0.36289 -0.13196,-0.75877 -0.19794,-1.18763c-0.16495,-1.02269 -0.3299,-2.04537 -0.49485,-3.06806c-0.46186,-2.83713 -0.87423,-5.47631 -1.23712,-7.91756c-1.05568,-7.19179 -1.60001,-11.85985 -1.633,-14.00419v-0.69279l-0.69279,-0.09897c-5.08044,-0.62681 -8.67633,-0.92372 -10.78768,-0.89073c0.49485,-2.87012 0.77526,-4.75054 0.84124,-5.64126c2.01238,0.13196 6.51549,0.34639 13.50934,0.6433l5.59178,33.64964c-0.72578,-0.03299 -1.58351,-0.03299 -2.57321,0c-0.39588,0.03299 -0.80825,0.04948 -1.23712,0.04948c-0.29691,0.03299 -0.61031,0.04948 -0.94021,0.04948zM459.31741,217.18548h0.04948l1.97939,-14.40007h3.85981l4.80002,25.93002l-0.9897,0.04948c-0.42887,0 -1.41856,0 -2.96909,0h-8.31344l1.58351,-11.52995zM470.74839,193.13589c-7.38973,-1.18763 -11.90933,-1.89692 -13.55883,-2.12785c-1.55052,4.48662 -4.42064,20.10731 -8.61035,46.86208c-1.51753,9.79798 -2.9361,19.29906 -4.25569,28.50323c-1.22062,8.61035 -1.89692,13.77326 -2.02888,15.48873c0.72578,-0.16495 2.55671,-0.26392 5.49281,-0.29691c3.26599,-16.85781 5.65776,-29.70736 7.17529,-38.54863c1.02269,0.03299 2.63919,0.14845 4.84951,0.34639c1.97939,0.16495 3.74435,0.3299 5.29487,0.49485c0.13196,2.77115 0.77526,8.04952 1.92991,15.83513c0.39588,2.47424 0.80825,5.08044 1.23712,7.81859c0.13196,0.85774 0.28041,1.69898 0.44536,2.52372c0.03299,0.26392 0.06598,0.52784 0.09897,0.79176l0.04948,0.24742v0.09897l0.14845,0.74227l0.74227,-0.04948h0.04948h0.09897h0.19794l0.24742,-0.04948c0.46186,0 0.94021,-0.01649 1.43506,-0.04948c1.48454,-0.06598 2.70517,-0.08247 3.66187,-0.04948l0.79176,4.75054c4.38765,-0.19794 7.20828,-0.29691 8.4619,-0.29691l0.29691,0.29691c-0.92372,-3.03507 -5.67425,-30.81252 -14.25161,-83.33235z"
                    id="element-id-69693"/>
            </g>
            <g
                fill-rule="evenodd" id="element-id-86271">
                <g
                    id="element-id-82973">
                    <path
                        d="M108.95294,175.64137c0,0 -43.95294,15.94398 -43.95294,60.11291c0,44.16894 43.95294,58.60492 43.95294,58.60492c0,0 -13.57338,-6.46399 -13.57338,-59.46692c0,-53.00192 13.57338,-59.25092 13.57338,-59.25092z"
                        id="element-id-41176"/>
                    <path
                        d="M136.5319,177.79637c-7.10999,0 -13.14298,5.81699 -13.14298,13.14298c0,7.10999 6.03299,12.92698 13.14298,12.92698c7.32599,0 13.14298,-5.81699 13.14298,-12.92698c0,-7.32599 -5.81699,-13.14298 -13.14298,-13.14298z"
                        id="element-id-23482"/>
                    <path
                        d="M158.90487,195.79934c5.11499,5.11499 9.07499,10.98898 11.88098,17.62098c2.90466,6.86799 4.35699,14.06131 4.35699,21.57997c0,7.51899 -1.453,14.71198 -4.35699,21.57997c-2.806,6.63199 -6.76599,12.50598 -11.88098,17.62098c-5.11466,5.11533 -10.98832,9.07532 -17.62098,11.87998c-6.86799,2.905 -14.06098,4.35699 -21.57997,4.35699c-3.68599,0 -7.29499,-0.349 -10.82498,-1.047l-0.345,-0.455l-0.561,-0.833l-0.535,-0.881l-0.313,-0.566c4.08099,0.993 8.27499,1.489 12.57898,1.489c7.20899,0 14.10398,-1.392 20.68697,-4.17599c6.35732,-2.68933 11.98832,-6.48599 16.89298,-11.38998c4.90399,-4.90399 8.69999,-10.53499 11.38998,-16.89298c2.783,-6.58199 4.17499,-13.47698 4.17499,-20.68597c0,-7.20899 -1.392,-14.10398 -4.17499,-20.68597c-2.69,-6.35799 -6.48599,-11.98898 -11.38998,-16.89298c-1.368,-1.368 -2.793,-2.65 -4.27399,-3.84599l0.094,-0.572l0.038,-0.328l0.082,-1.184l0.009,-0.205l0.003,-0.305l-0.002,-0.145c1.984,1.512 3.87499,3.166 5.67099,4.96299z"
                        id="element-id-14346"/>
                </g>
            </g>
        </g>
    </g>
</svg>
