<svg version="1.1" xmlns="http://www.w3.org/2000/svg" viewBox="60 170 430 130"> <!--0 0 550 470-->
    <g fill="#101820" fill-rule="none" stroke="none" stroke-width="1" stroke-linecap="butt" stroke-linejoin="miter"
       stroke-miterlimit="10" stroke-dasharray="" stroke-dashoffset="0" font-family="none" font-weight="none"
       font-size="none" text-anchor="none" style="mix-blend-mode: normal">
        <g>
            <g fill-rule="nonzero" id="element-id-16735">
                <path
                    d="M229.50487,267.34877l0.15691,-0.47072l0.47072,-0.94144l0.47072,-0.94144c0.34868,-0.73223 0.62762,-1.29012 0.83683,-1.67366c2.78944,1.29012 5.68348,1.83057 8.68213,1.62136c3.83548,-0.27894 6.59005,-1.93517 8.26371,-4.96869c1.60393,-2.89404 1.77827,-6.01473 0.52302,-9.36205c-1.32498,-3.55653 -4.11442,-7.1305 -8.36832,-10.7219c-1.53419,-1.32498 -3.19042,-2.58023 -4.96869,-3.76574c-1.39472,-0.90657 -2.6151,-1.62136 -3.66114,-2.14438c0.38355,-0.9763 1.13321,-2.26642 2.24898,-3.87035l2.19668,1.41215l2.19668,1.41215c1.7434,1.11578 3.13812,2.03978 4.18416,2.772c3.06838,2.12695 5.36967,4.06212 6.90386,5.80552c2.37102,2.75457 3.85291,6.06703 4.44567,9.93737c0.59276,3.94008 0.12204,7.46175 -1.41215,10.565c-1.67366,3.45193 -4.34106,5.73578 -8.0022,6.85156c-4.21903,1.32498 -9.34462,0.94144 -15.37678,-1.15064zM252.88385,202.70353c-0.31381,0.55789 -0.7671,1.35985 -1.35985,2.40589l-0.31381,0.62762l-0.31381,0.52302c-0.20921,0.41842 -0.38355,0.73223 -0.52302,0.94144c-1.88287,-1.11578 -4.06212,-1.77827 -6.53775,-1.98747c-2.89404,-0.24408 -5.16046,0.31381 -6.79926,1.67366c-2.89404,-1.98747 -4.81178,-3.31246 -5.75322,-3.97495c1.95261,-2.75457 5.24763,-3.92265 9.88507,-3.50423c3.31246,0.27894 7.21767,1.37729 11.71564,3.29502zM257.06801,235.39226c-1.53419,-1.67366 -4.34106,-3.90521 -8.42062,-6.69465l-2.5628,-1.77827l-2.6674,-1.77827c-2.02234,-1.42959 -3.71344,-2.6674 -5.07329,-3.71344c-3.69601,-2.89404 -6.24137,-5.56144 -7.63609,-8.0022c-1.70853,-3.06838 -1.81313,-6.06703 -0.31381,-8.99594c1.848,1.29012 3.92265,2.7197 6.22393,4.28876l0.62762,0.41842l0.52302,-0.52302c1.32498,-1.42959 3.4345,-1.98747 6.32854,-1.67366c2.54536,0.27894 4.55027,1.01117 6.01473,2.19668l0.83683,0.62762l0.47072,-0.88913c1.18551,-2.12695 2.21412,-3.95752 3.08582,-5.49171c0.83683,0.38355 1.76083,0.80196 2.772,1.25525l0.52302,0.26151l0.41842,0.20921c0.31381,0.17434 0.54045,0.27894 0.67993,0.31381c2.37102,-2.33615 3.88778,-4.95125 4.55027,-7.8453c-3.41706,-3.17299 -8.36832,-5.4394 -14.85376,-6.79926c-7.74069,-1.6388 -14.60968,-0.94144 -20.60698,2.09208c-4.4631,2.23155 -7.46175,5.87525 -8.99594,10.93111c-1.60393,5.3348 -0.8717,10.32092 2.19668,14.95836c2.12695,3.24272 5.96242,6.71209 11.50643,10.40809c-0.8717,1.25525 -1.7957,3.20785 -2.772,5.85782l0.67993,0.26151c0.73223,0.24408 1.81313,0.83683 3.24272,1.77827c1.70853,1.04604 3.36476,2.23155 4.96869,3.55653c4.3585,3.62627 7.1828,7.14794 8.47292,10.565c1.08091,2.85917 0.94144,5.50914 -0.41842,7.9499c-1.56906,2.85917 -4.3062,4.23646 -8.21141,4.13186c-1.39472,-0.06974 -2.82431,-0.31381 -4.28876,-0.73223c-1.15064,-0.31381 -2.07464,-0.66249 -2.772,-1.04604l-0.57532,-0.31381l-0.47072,0.47072c-0.41842,0.45328 -1.23781,1.95261 -2.45819,4.49797l-0.41842,0.99374c-1.56906,-0.62762 -3.06838,-1.27268 -4.49797,-1.93517c-0.38355,1.04604 -0.74966,1.88287 -1.09834,2.51049c-0.13947,0.27894 -0.27894,0.54045 -0.41842,0.78453l-0.36611,0.57532c-0.59276,1.01117 -1.18551,2.30129 -1.77827,3.87035c2.64997,2.05721 6.24137,3.5914 10.77421,4.60257c3.83548,0.83683 7.72326,1.20295 11.66334,1.09834c5.54401,-0.17434 10.23375,-1.848 14.06923,-5.02099c3.45193,-2.89404 5.85782,-6.71209 7.21767,-11.45413c1.29012,-4.53284 1.41215,-9.20515 0.36611,-14.01693c-1.11578,-4.95125 -3.29502,-9.20515 -6.53775,-12.76168z"
                    id="element-id-51550"/>
                <path
                    d="M290.33206,201.29138c0.45328,-0.06974 1.77827,0.26151 3.97495,0.99374l0.62762,0.20921l0.67993,0.26151c0.55789,0.17434 1.02861,0.31381 1.41215,0.41842c1.01117,0.31381 1.6911,0.45328 2.03978,0.41842c0.1046,0 0.33125,-0.1046 0.67993,-0.31381l0.47072,-0.26151l0.47072,-0.31381l0.78453,-0.41842l0.83683,-0.52302c0.69736,-0.34868 1.35985,-0.62762 1.98747,-0.83683c1.67366,-0.52302 3.26016,-0.50559 4.75948,0.0523c-0.69736,-1.56906 -2.98121,-2.78944 -6.85156,-3.66114c-3.87035,-0.90657 -8.9262,-1.35985 -15.16757,-1.35985c-0.7671,0 -1.53419,0.01743 -2.30129,0.0523c-0.55789,0 -1.09834,0.01743 -1.62136,0.0523c0.1046,1.46446 0.29638,4.02725 0.57532,7.68839c0.94144,-0.62762 2.21412,-1.20295 3.81804,-1.72597c0.59276,-0.20921 1.16808,-0.38355 1.72597,-0.52302c0.48815,-0.1046 0.85427,-0.17434 1.09834,-0.20921zM309.63149,206.15546c-1.98747,2.37102 -6.2065,3.99238 -12.65708,4.86408c-2.23155,0.31381 -4.70718,0.52302 -7.42688,0.62762c-1.01117,0.03487 -2.05721,0.0523 -3.13812,0.0523c-0.41842,0 -0.85427,0 -1.30755,0h-2.45819l-0.1046,-0.73223c-0.06974,-0.48815 -0.27894,-3.10325 -0.62762,-7.8453c-0.34868,-4.56771 -0.54045,-7.20024 -0.57532,-7.8976v-0.83683l0.83683,-0.0523c1.29012,-0.06974 2.91148,-0.1046 4.86408,-0.1046c6.38084,0 11.5413,0.45328 15.48138,1.35985c5.19533,1.18551 8.0022,3.08582 8.42062,5.70091c0.31381,1.848 -0.12204,3.46936 -1.30755,4.86408zM288.39689,235.23536c0,5.3348 -0.01743,10.07685 -0.0523,14.22614c-0.03487,11.68077 -0.1046,18.60207 -0.20921,20.76388c-1.56906,0.24408 -3.38219,0.62762 -5.4394,1.15064c0,-1.56906 0,-3.81804 0,-6.74695l-0.0523,-1.88287v-1.93517c0,-1.60393 0,-2.96378 0,-4.07955c-0.03487,-6.86899 -0.0523,-12.48274 -0.0523,-16.84123c0,-13.1801 0.08717,-20.01422 0.26151,-20.50237l1.30755,-0.0523l1.35985,-0.0523c1.22038,-0.03487 2.17925,-0.06974 2.87661,-0.1046v0.47072v0.47072zM273.07241,279.53513c0.73223,0.20921 2.31872,0.20921 4.75948,0c0.80196,-0.1046 1.72597,-0.22664 2.772,-0.36611l0.62762,-0.0523l0.57532,-0.1046c0.41842,-0.03487 0.69736,-0.06974 0.83683,-0.1046c0.03487,-0.17434 0.0523,-2.09208 0.0523,-5.75322c2.40589,-0.62762 4.53284,-1.08091 6.38084,-1.35985l0.62762,-0.1046l0.0523,-0.62762c0.13947,-0.90657 0.24408,-6.2588 0.31381,-16.05671c0.03487,-7.04333 0.0523,-17.45142 0.0523,-31.22428v-4.65488c8.01964,-0.31381 14.34817,-1.22038 18.98562,-2.7197c6.76439,-2.23155 11.10545,-5.89269 13.02319,-10.98341c1.18551,-3.13812 1.06347,-6.04959 -0.36611,-8.73443c-1.49932,-2.82431 -4.32363,-5.10816 -8.47292,-6.85156c-9.58869,-4.11442 -24.26811,-4.88152 -44.03826,-2.30129zM301.57699,204.22029c-1.15064,0.69736 -1.97004,1.06347 -2.45819,1.09834c-0.73223,0.03487 -2.52793,-0.41842 -5.3871,-1.35985c-0.55789,-0.20921 -1.18551,-0.41842 -1.88287,-0.62762c-0.66249,-0.17434 -1.09834,-0.27894 -1.30755,-0.31381c-0.94144,0.1046 -2.16181,0.45328 -3.66114,1.04604c-1.60393,0.66249 -2.6151,1.25525 -3.03351,1.77827c0.13947,1.88287 0.24408,3.26016 0.31381,4.13186c13.31957,0 21.37407,-1.6388 24.16351,-4.91639c0.52302,-0.62762 0.83683,-1.32498 0.94144,-2.09208c-1.32498,-0.69736 -2.73714,-0.83683 -4.23646,-0.41842c-0.55789,0.13947 -1.16808,0.38355 -1.83057,0.73223l-0.83683,0.47072z"
                    id="element-id-58803"/>
                <path
                    d="M344.15079,271.53293c-0.17434,-0.03487 -0.43585,-0.06974 -0.78453,-0.1046l-0.94144,-0.0523c-1.67366,-0.13947 -2.98121,-0.24408 -3.92265,-0.31381l0.1046,-3.76574l0.15691,-3.81804l0.20921,-7.74069c0.17434,-6.03216 0.31381,-11.17519 0.41842,-15.42908c0.24408,-11.64591 0.29638,-21.14743 0.15691,-28.50457c0.80196,-0.03487 1.848,-0.12204 3.13812,-0.26151l1.46446,-0.1046c0.48815,-0.03487 0.88913,-0.06974 1.20295,-0.1046c0,3.5914 -0.15691,13.59851 -0.47072,30.02133c-0.31381,15.62086 -0.55789,25.68027 -0.73223,30.17824zM346.9228,209.712l-0.62762,-0.1046c-0.45328,-0.03487 -1.70853,0.03487 -3.76574,0.20921l-0.67993,0.1046l-0.73223,0.0523c-0.62762,0.03487 -1.16808,0.06974 -1.62136,0.1046c-0.06974,-2.37102 -0.15691,-4.04469 -0.26151,-5.02099c-1.29012,-0.17434 -3.29502,-0.15691 -6.01473,0.0523l-1.67366,0.15691l-1.56906,0.15691c-1.15064,0.06974 -2.07464,0.12204 -2.772,0.15691c1.60393,45.64219 2.40589,71.20042 2.40589,76.67469c0.59276,0.06974 1.30755,0.12204 2.14438,0.15691l2.14438,0.1046c1.88287,0.06974 3.26016,0.17434 4.13186,0.31381c0.1046,-0.59276 0.24408,-3.94008 0.41842,-10.04198c0.55789,0.03487 1.23781,0.08717 2.03978,0.15691l0.94144,0.1046l0.83683,0.0523c1.53419,0.13947 2.42332,0.20921 2.6674,0.20921l0.1046,-0.0523h0.73223l0.0523,-0.73223c0.03487,-0.13947 0.12204,-3.39963 0.26151,-9.78047c0.17434,-6.83412 0.34868,-13.84259 0.52302,-21.02539c0.41842,-20.32803 0.55789,-30.80586 0.41842,-31.43348zM338.76369,199.1993v-13.59851h-12.50017l0.94144,13.59851z"
                    id="element-id-30368"/>
                <path
                    d="M363.0318,268.86553c-0.24408,-1.6388 -0.12204,-9.76303 0.36611,-24.37272c0.03487,-1.08091 0.06974,-2.63253 0.1046,-4.65488l0.15691,-4.75948c0.13947,-3.80061 0.24408,-7.00846 0.31381,-9.62356c0.20921,-7.39201 0.34868,-13.35444 0.41842,-17.88727c2.09208,0.06974 3.6437,0.13947 4.65488,0.20921c0.06974,2.6151 0.13947,12.02945 0.20921,28.24306c0.03487,5.82295 0.0523,12.13406 0.0523,18.93331c0.03487,5.3348 0.0523,9.88507 0.0523,13.65081c-3.80061,0.31381 -5.91012,0.40098 -6.32854,0.26151zM387.09071,267.29647c-0.45328,-0.06974 -2.44076,0.0523 -5.96242,0.36611c-0.66249,0.03487 -1.46446,0.1046 -2.40589,0.20921l-2.51049,0.20921c-2.16181,0.17434 -3.87035,0.31381 -5.12559,0.41842c0,-1.81313 0,-3.83548 0,-6.06703c-0.03487,-2.78944 -0.0523,-5.59631 -0.0523,-8.42062c0,-7.49662 -0.01743,-14.24357 -0.0523,-20.24086c-0.06974,-17.25965 -0.15691,-26.23816 -0.26151,-26.93552l-0.1046,-0.62762l-0.62762,-0.1046c-0.38355,-0.03487 -1.15064,-0.08717 -2.30129,-0.15691c-0.94144,-0.03487 -2.03978,-0.06974 -3.29502,-0.1046c0.03487,-6.27624 -0.08717,-10.39066 -0.36611,-12.34327c-1.29012,-0.17434 -3.19042,-0.17434 -5.70091,0c-2.78944,0.20921 -4.5154,0.55789 -5.1779,1.04604c1.46446,53.1388 1.86544,80.40556 1.20295,81.80028c2.33615,0.41842 8.22884,0.26151 17.67807,-0.47072c1.6388,-0.1046 3.39963,-0.24408 5.2825,-0.41842c1.32498,-0.1046 2.84174,-0.22664 4.55027,-0.36611c3.24272,-0.27894 4.98612,-0.43585 5.2302,-0.47072c0.27894,-2.40589 0.27894,-4.84665 0,-7.32228z"
                    id="element-id-55318"/>
                <path
                    d="M407.54078,273.83421c-0.31381,0 -0.74966,-0.01743 -1.30755,-0.0523l-0.73223,-0.0523l-0.78453,-0.0523c-2.12695,-0.13947 -3.6437,-0.20921 -4.55027,-0.20921c0.7671,-15.20244 1.25525,-33.08971 1.46446,-53.66182c0.48815,-0.38355 1.22038,-0.94144 2.19668,-1.67366l0.62762,-0.41842l0.67993,-0.52302c0.52302,-0.38355 0.99374,-0.71479 1.41215,-0.99374c0.69736,2.26642 1.58649,5.12559 2.6674,8.57752c-0.03487,5.26507 -0.27894,14.0518 -0.73223,26.36019c-0.41842,11.99459 -0.73223,19.56094 -0.94144,22.69906zM430.76286,202.38972l0.36611,0.67993c0.27894,0.48815 0.52302,0.924 0.73223,1.30755c0.52302,0.9763 0.80196,1.6388 0.83683,1.98747c-0.20921,0.13947 -0.61019,0.40098 -1.20295,0.78453c-0.24408,0.13947 -0.52302,0.31381 -0.83683,0.52302l-0.94144,0.57532l-1.20295,0.73223l-1.25525,0.78453c-0.9763,0.59276 -1.86544,1.15064 -2.6674,1.67366c-2.09208,1.32498 -3.81804,2.49306 -5.1779,3.50423c-0.94144,-2.7197 -1.76083,-4.86408 -2.45819,-6.43314c4.91639,-3.69601 8.9262,-6.79926 12.02945,-9.30975c0.31381,0.59276 0.78453,1.46446 1.41215,2.6151zM430.60595,209.712c2.16181,-1.32498 3.34733,-2.09208 3.55653,-2.30129c0.38355,-0.45328 0.38355,-1.16808 0,-2.14438c-0.27894,-0.7671 -1.02861,-2.21412 -2.24898,-4.34106c-0.69736,-1.25525 -1.22038,-2.21412 -1.56906,-2.87661c3.34733,-2.78944 5.29993,-4.68974 5.85782,-5.70091c-0.48815,-0.8717 -1.58649,-2.00491 -3.29502,-3.39963c-1.81313,-1.49932 -3.15555,-2.24898 -4.02725,-2.24898c-0.34868,0 -3.73087,2.38846 -10.14658,7.16537c-6.86899,5.09073 -12.55247,9.50152 -17.05044,13.2324c-0.06974,-10.565 -0.33125,-17.25965 -0.78453,-20.08396c-1.49932,-0.24408 -5.12559,-0.27894 -10.87881,-0.1046c0.1046,5.50914 0.26151,12.81398 0.47072,21.91453c0.24408,10.80907 0.48815,20.88592 0.73223,30.23054c0.62762,25.6977 1.02861,39.40082 1.20295,41.10935c2.40589,0.31381 4.84665,0.31381 7.32228,0c0.1046,-0.8717 0.20921,-2.52793 0.31381,-4.96869c0.62762,0 1.41215,0.03487 2.35359,0.1046l1.15064,0.0523c0.31381,0.03487 0.66249,0.0523 1.04604,0.0523c1.60393,0.1046 2.64997,0.15691 3.13812,0.15691c0.27894,0 0.50559,0 0.67993,0l0.67993,-0.1046l0.0523,-0.67993c0.17434,-1.49932 0.47072,-7.51405 0.88913,-18.04418c0.38355,-10.53013 0.66249,-19.42147 0.83683,-26.67401c3.94008,12.55247 7.30484,23.06517 10.09428,31.53809c3.87035,11.68077 6.34597,18.58463 7.42688,20.71158c0.59276,-0.20921 1.25525,-0.48815 1.98747,-0.83683l1.98747,-0.88913c1.70853,-0.80196 2.98121,-1.34242 3.81804,-1.62136c-0.13947,-0.38355 -0.78453,-2.99865 -1.93517,-7.8453l-0.20921,-0.83683l-0.20921,-0.88913l-0.41842,-1.83057c-0.34868,-1.42959 -0.66249,-2.75457 -0.94144,-3.97495c-0.80196,-3.24272 -1.53419,-6.2588 -2.19668,-9.04824c-1.848,-7.53148 -3.55653,-14.17383 -5.12559,-19.92705c-1.95261,-7.35714 -3.67857,-13.31957 -5.1779,-17.88727c1.35985,-1.04604 3.13812,-2.28385 5.3348,-3.71344c0.83683,-0.52302 1.77827,-1.11578 2.82431,-1.77827c0.38355,-0.24408 0.80196,-0.50559 1.25525,-0.78453c0.31381,-0.17434 0.71479,-0.41842 1.20295,-0.73223z"
                    id="element-id-41764"/>
                <path
                    d="M461.62102,214.78529c-0.7671,0.83683 -1.46446,1.55163 -2.09208,2.14438l-1.15064,8.21141c0.66249,-0.62762 1.70853,-1.56906 3.13812,-2.82431c0.52302,-0.41842 1.25525,-1.08091 2.19668,-1.98747l0.67993,-0.62762c0.62762,-0.48815 1.01117,-0.8717 1.15064,-1.15064l0.0523,0.0523l-1.25525,-6.79926c-0.27894,0.27894 -0.59276,0.61019 -0.94144,0.99374l-0.73223,0.88913zM461.41181,212.484l0.67993,-0.78453c0.69736,-0.83683 1.32498,-1.42959 1.88287,-1.77827l-1.35985,-7.37458h-1.09834l-1.62136,11.55874l0.47072,-0.47072zM464.91604,221.58454c-0.94144,0.90657 -1.6911,1.60393 -2.24898,2.09208c-0.24408,0.20921 -0.69736,0.61019 -1.35985,1.20295c-0.7671,0.66249 -1.39472,1.22038 -1.88287,1.67366h5.54401h2.09208l-1.09834,-5.91012l-0.47072,0.41842zM469.57092,272.05595c-0.06974,-0.27894 -0.12204,-0.59276 -0.15691,-0.94144c-0.06974,-0.38355 -0.13947,-0.80196 -0.20921,-1.25525c-0.17434,-1.08091 -0.34868,-2.16181 -0.52302,-3.24272c-0.48815,-2.99865 -0.924,-5.78808 -1.30755,-8.36832c-1.11578,-7.60122 -1.6911,-12.53504 -1.72597,-14.80146v-0.73223l-0.73223,-0.1046c-5.36967,-0.66249 -9.17028,-0.9763 -11.40183,-0.94144c0.52302,-3.03351 0.8194,-5.02099 0.88913,-5.96242c2.12695,0.13947 6.88643,0.36611 14.27844,0.67993l5.91012,35.56534c-0.7671,-0.03487 -1.67366,-0.03487 -2.7197,0c-0.41842,0.03487 -0.85427,0.0523 -1.30755,0.0523c-0.31381,0.03487 -0.64506,0.0523 -0.99374,0.0523zM457.85528,216.04054h0.0523l2.09208,-15.21987h4.07955l5.07329,27.40623l-1.04604,0.0523c-0.45328,0 -1.49932,0 -3.13812,0h-8.78673l1.67366,-12.18636zM469.93703,190.62178c-7.81043,-1.25525 -12.58734,-2.00491 -14.33074,-2.24898c-1.6388,4.74205 -4.67231,21.25203 -9.10054,49.52997c-1.60393,10.35579 -3.10325,20.39777 -4.49797,30.12594c-1.29012,9.10054 -2.00491,14.55738 -2.14438,16.37052c0.7671,-0.17434 2.70227,-0.27894 5.80552,-0.31381c3.45193,-17.81754 5.97986,-31.39862 7.58379,-40.74324c1.08091,0.03487 2.78944,0.15691 5.12559,0.36611c2.09208,0.17434 3.95752,0.34868 5.59631,0.52302c0.13947,2.92891 0.8194,8.50779 2.03978,16.73663c0.41842,2.6151 0.85427,5.36967 1.30755,8.26371c0.13947,0.90657 0.29638,1.7957 0.47072,2.6674c0.03487,0.27894 0.06974,0.55789 0.1046,0.83683l0.0523,0.26151v0.1046l0.15691,0.78453l0.78453,-0.0523h0.0523h0.1046h0.20921l0.26151,-0.0523c0.48815,0 0.99374,-0.01743 1.51676,-0.0523c1.56906,-0.06974 2.85917,-0.08717 3.87035,-0.0523l0.83683,5.02099c4.63744,-0.20921 7.61865,-0.31381 8.94364,-0.31381l0.31381,0.31381c-0.9763,-3.20785 -5.99729,-32.56669 -15.06297,-88.07652z"
                    id="element-id-79811"/>
            </g>
            <g
                fill-rule="evenodd" id="element-id-89854">
                <g id="element-id-97346">
                    <path
                        d="M111.33301,172.42767c0,0 -46.33301,16.807 -46.33301,63.36702c0,46.56001 46.33301,61.77702 46.33301,61.77702c0,0 -14.3087,-6.813 -14.3087,-62.68602c0,-55.87202 14.3087,-62.45802 14.3087,-62.45802z"
                        id="element-id-61881"/>
                    <path
                        d="M140.40502,174.69867c-7.495,0 -13.855,6.132 -13.855,13.854c0,7.495 6.36,13.628 13.855,13.628c7.722,0 13.854,-6.133 13.854,-13.628c0,-7.722 -6.132,-13.854 -13.854,-13.854z"
                        id="element-id-25082"/>
                    <path
                        d="M163.98903,193.67667c5.392,5.391 9.567,11.583 12.524,18.57501c3.062,7.239 4.593,14.822 4.593,22.74801c0,7.926 -1.531,15.509 -4.593,22.74801c-2.957,6.992 -7.132,13.184 -12.524,18.57501c-5.392,5.392 -11.584,9.567 -18.57501,12.524c-7.24,3.062 -14.822,4.593 -22.74801,4.593c-3.886,0 -7.69,-0.368 -11.411,-1.104l-0.364,-0.48l-0.591,-0.878l-0.564,-0.929l-0.33,-0.596c4.302,1.04667 8.722,1.57 13.26,1.57c7.59867,0 14.86734,-1.46767 21.80601,-4.403c6.702,-2.835 12.638,-6.837 17.80801,-12.006c5.169,-5.17 9.172,-11.106 12.006,-17.80801c2.935,-6.938 4.402,-14.207 4.402,-21.80601c0,-7.599 -1.467,-14.868 -4.402,-21.80601c-2.834,-6.702 -6.837,-12.638 -12.006,-17.80801c-1.442,-1.442 -2.944,-2.793 -4.505,-4.053l0.099,-0.604l0.04,-0.346l0.087,-1.248l0.009,-0.216l0.003,-0.322l-0.002,-0.152c2.092,1.594 4.084,3.338 5.978,5.232z"
                        id="element-id-5783"/>
                </g>
            </g>
        </g>
    </g>
</svg>
